<?xml version="1.0" encoding="UTF-8"?>
<svg xmlns="http://www.w3.org/2000/svg" xmlns:xlink="http://www.w3.org/1999/xlink" viewBox="0 0 200 200">
  <defs>
    <style>
      .cls-1 {
        stroke: url(#linear-gradient-12);
      }

      .cls-1, .cls-2, .cls-3, .cls-4, .cls-5, .cls-6, .cls-7, .cls-8, .cls-9, .cls-10, .cls-11, .cls-12, .cls-13, .cls-14, .cls-15, .cls-16 {
        fill: none;
      }

      .cls-1, .cls-2, .cls-3, .cls-4, .cls-5, .cls-6, .cls-7, .cls-8, .cls-9, .cls-10, .cls-11, .cls-13, .cls-14, .cls-15, .cls-16 {
        stroke-linecap: round;
        stroke-linejoin: round;
        stroke-width: 2px;
      }

      .cls-2 {
        stroke: url(#linear-gradient-16);
      }

      .cls-17 {
        fill: #fff;
        font-family: Bahnschrift, Bahnschrift;
        font-size: 26px;
        font-variation-settings: 'wght' 400, 'wdth' 100;
      }

      .cls-3 {
        stroke: url(#linear-gradient-8);
      }

      .cls-4 {
        stroke: url(#linear-gradient-11);
      }

      .cls-5 {
        stroke: url(#linear-gradient-3);
      }

      .cls-18 {
        opacity: .35;
      }

      .cls-6 {
        stroke: url(#linear-gradient-5);
      }

      .cls-7 {
        stroke: url(#linear-gradient-7);
      }

      .cls-8 {
        stroke: url(#linear-gradient-14);
      }

      .cls-9 {
        stroke: url(#linear-gradient-4);
      }

      .cls-10 {
        stroke: url(#linear-gradient-2);
      }

      .cls-11 {
        stroke: url(#linear-gradient-10);
      }

      .cls-19 {
        clip-path: url(#clippath);
      }

      .cls-20 {
        letter-spacing: -.02em;
      }

      .cls-21 {
        letter-spacing: -.02em;
      }

      .cls-13 {
        stroke: url(#linear-gradient-15);
      }

      .cls-14 {
        stroke: url(#linear-gradient-13);
      }

      .cls-22 {
        letter-spacing: 0em;
      }

      .cls-23 {
        fill: url(#linear-gradient);
      }

      .cls-15 {
        stroke: url(#linear-gradient-9);
      }

      .cls-16 {
        stroke: url(#linear-gradient-6);
      }
    </style>
    <linearGradient id="linear-gradient" x1="14.86" y1="108.7" x2="185.14" y2="108.7" gradientUnits="userSpaceOnUse">
      <stop offset=".31" stop-color="#2a0a5b"/>
      <stop offset=".73" stop-color="#4f46e5"/>
      <stop offset="1" stop-color="#e64899"/>
    </linearGradient>
    <linearGradient id="linear-gradient-2" x1="101.33" y1="176.96" x2="132.15" y2="176.96" gradientUnits="userSpaceOnUse">
      <stop offset=".49" stop-color="#e64899"/>
      <stop offset=".67" stop-color="#7d47ce"/>
    </linearGradient>
    <linearGradient id="linear-gradient-3" x1="99.16" y1="66.69" x2="186.14" y2="66.69" xlink:href="#linear-gradient-2"/>
    <linearGradient id="linear-gradient-4" x1="110.14" y1="135.14" x2="185.68" y2="135.14" xlink:href="#linear-gradient-2"/>
    <linearGradient id="linear-gradient-5" x1="65.79" y1="38.87" x2="100.82" y2="38.87" xlink:href="#linear-gradient-2"/>
    <linearGradient id="linear-gradient-6" x1="15.08" y1="151.83" x2="101.6" y2="151.83" xlink:href="#linear-gradient-2"/>
    <linearGradient id="linear-gradient-7" x1="13.86" y1="72" x2="67.79" y2="72" xlink:href="#linear-gradient-2"/>
    <clipPath id="clippath">
      <rect class="cls-12" x="-3057.94" y="-431.56" width="1920" height="1080"/>
    </clipPath>
    <linearGradient id="linear-gradient-8" x1="-48.3" y1="99.3" x2="35.19" y2="99.3" xlink:href="#linear-gradient-2"/>
    <linearGradient id="linear-gradient-9" x1="119.44" y1="115.56" x2="193.1" y2="115.56" xlink:href="#linear-gradient-2"/>
    <linearGradient id="linear-gradient-10" x1="-216.47" y1="224.45" x2="35.62" y2="224.45" xlink:href="#linear-gradient-2"/>
    <linearGradient id="linear-gradient-11" x1="119.87" y1="-45.11" x2="204.79" y2="-45.11" xlink:href="#linear-gradient-2"/>
    <linearGradient id="linear-gradient-12" x1="172.33" y1="39.06" x2="204.22" y2="39.06" xlink:href="#linear-gradient-2"/>
    <linearGradient id="linear-gradient-13" x1="33.64" y1="14.57" x2="121.44" y2="14.57" xlink:href="#linear-gradient-2"/>
    <linearGradient id="linear-gradient-14" x1="-49.6" y1="226.36" x2="375" y2="226.36" xlink:href="#linear-gradient-2"/>
    <linearGradient id="linear-gradient-15" x1="171.45" y1="31.5" x2="287.01" y2="31.5" xlink:href="#linear-gradient-2"/>
    <linearGradient id="linear-gradient-16" x1="-51.98" y1="13.54" x2="35.19" y2="13.54" xlink:href="#linear-gradient-2"/>
  </defs>
  <g id="puzzle_botao_fundo" data-name="puzzle botao fundo">
    <path class="cls-23" d="m14.86,109.52s21.61,23.92,25.97,24.1c4.36.18,9.48.65,11.32-6.76s4.41-9.49,12.83-10.68,26.26,10.73,25.38,22.58-.69,7.09-5.82,12.6-12.95,5.22-13.32,9.58,12.76,16.04,12.76,16.04l16.63,16.04h1.73s26.57-27.16,26.57-27.16c0,0,3.84-5.93,2.26-8.09s-5.38-4.41-12.55-7.06c0,0-10.97-7.74-6.26-21.41s18.11-19.02,21.17-17.87,13.06-1.25,17.57,13.03,6.18,9.98,8.67,10.22,25.39-25.68,25.39-25.68c0,0-26.78-23.73-26.22-27.01s1.41-4.96,8.42-7.69,13.09-4.95,8.71-20.87c0,0-9.55-17.19-25.67-16.24,0,0-6.67.83-9.99,11.42,0,0-4.62,6.67-8.94,4.98s-3.57-1.09-3.57-1.09l-28.62-28.09-27.18,27.78s-5.18,3.44-8.4-.05-4.37-4.29-4.37-4.29c0,0-1.15-11.19-10.21-12.6,0,0-15.66-4.03-24.24,9.84s-.06,24.5,3.34,26.46,11.32,1.28,12.26,7.06.33,5.1.33,5.1l-9.69,10.22-16.28,15.6Z"/>
  </g>
  <g id="puzzle_botao" data-name="puzzle botao">
    <path class="cls-10" d="m131.15,160.93c-.57,2.54-1.78,4.65-3.66,6.53-8.44,8.46-16.79,17.02-25.17,25.55"/>
    <path class="cls-5" d="m185.14,108.98c-6.87-6.15-13.76-12.28-19.97-19.13-.82-.91-1.77-1.7-2.59-2.61-2-2.22-4.65-4.31-3.42-7.78,1.32-3.71,4.8-4.66,8.19-5.18,6.91-1.06,8.23-2.65,9.65-9.55.83-4.03.73-7.57-.94-11.32-2.35-5.27-6.2-9.1-10.93-12.04-2.55-1.59-5.14-3.27-8.19-3.99-6.99-1.65-12.59.99-15.07,7.86-.97,2.69-2.43,4.75-4.48,6.42-3.16,2.58-7.32,3.34-10.85-.35-8.68-9.08-17.58-17.96-26.4-26.91"/>
    <path class="cls-9" d="m184.68,109.78c-7.8,7.95-15.53,15.96-23.44,23.8-2.65,2.62-6.12,1.84-7.7-1.72-1.47-3.33-2.04-7.07-3.6-10.34-3.36-7.02-12.68-12.01-21.56-9.41-4.88,1.42-8.51,5.51-11.66,9.45-2.67,3.34-4.63,7.16-5.39,11.62-.56,3.26.25,6.14.99,9.12,1.36,5.48,4.91,8.44,10.34,10.12,3.96,1.22,8.72,2.46,9.18,8.08,0,.02.54,0,.83,0"/>
    <path class="cls-6" d="m66.79,53.87c4.23-.23,6.47-3.47,9.09-6.08,7.9-7.85,15.76-15.75,23.94-23.92"/>
    <path class="cls-16" d="m100.6,193c-8.52-8.24-17.09-16.43-25.56-24.72-5.89-5.76-5.38-8.37,2.15-12.57,2.49-1.39,5.09-2.66,7.34-4.37,7.21-5.45,7.13-12.45,3.47-20.75-3.38-7.66-16.24-15.39-25.11-14.33-6.38.76-10.36,3.83-10.7,9.99-.4,7.27-4.87,8.65-11.8,6.79-2.24-.6-4.35-2.27-6.15-4.15-5.94-6.19-12.09-12.18-18.16-18.25"/>
    <path class="cls-7" d="m66.79,54.74c-1.88-1.59-3.74-3.2-5.64-4.76-1.11-.91-1.56-2.08-1.75-3.47-.84-6.32-4.65-10.65-10.83-11.66-12.6-2.08-22.53,4.87-26.19,15.5-1.96,5.67-1.66,10.55.65,15.66,1.76,3.9,4.4,6.19,9.05,7.13,7.85,1.59,7.75,2.08,9.14,9.79-1.34,3.08-4.26,4.69-6.51,6.92-6.62,6.56-13.23,13.13-19.85,19.69"/>
  </g>
  <g id="Layer_2" data-name="Layer 2">
    <g class="cls-19">
      <g class="cls-18">
        <path class="cls-3" d="m34.19,58.13c-8.52,8.38-17.12,16.69-25.53,25.18-2.74,2.77-5.58,2.94-9.16,2.23-3.94-.78-4.3-3.99-5.07-6.64-1.01-3.47-1.66-6.72-5.27-8.71-3.88-2.14-8.08-2.96-12.16-2.4-12.76,1.74-19.1,9.5-21.18,21.13-1.57,8.78,4.74,16.41,14.67,18.1,3.18.54,4.89,2.32,5.99,4.88.86,1.98.72,3.81-1.18,5.67-7.66,7.51-15.09,15.25-22.6,22.91"/>
        <path class="cls-15" d="m173.97,90.64c.62,3.75,3.94,7.17,7.59,7.8,7.53,1.3,10.95,6.42,10.51,13.88-.6,10.05-6.15,16.52-13.98,21.65-9.23,6.04-22.55.01-24.36-10.81-.24-1.41-.15-2.93-1.11-4.41-2.64-4.03-5.89-5.26-9.11-2.03-7.78,7.82-16.23,15-23.05,23.76"/>
        <path class="cls-11" d="m34.62,225c-9.25-8.96-18.52-17.89-27.72-26.89-3.4-3.33-2.9-6.51,1.29-9.08,2.71-1.65,5.28-3.47,8.18-4.87,7.52-3.63,9.31-12.63,5.78-20.75-4.48-10.3-13.28-13.88-23.09-15.9-6.12-1.26-12.04,3.57-12.96,9.88-.57,3.88-2.34,6.76-6.64,8.44-10.57-6.33-17.52-17.14-27.39-25.13-4.13,4.12-8.22,8.27-12.38,12.35-3.5,3.44-6.9,6.96-10.77,10.05-4.22,3.37-3.49,5.5,1.17,8.7,3.06,2.1,6.61,2.91,9.67,5,7.3,4.98,9.78,13.34,5.18,21.36-4.04,7.03-9.48,12.45-16.96,15.54-9.03,3.73-18.05,2.02-21.59-10.81-2.24-8.11-7.69-9.5-13.45-3.84-9.26,9.09-17.88,18.85-27.45,27.58-8.86,8.08-16.62,17.21-25.47,25.25-5.04,4.58-12.7,3.2-13.7-3.06-2.39-15.01-19.1-15.47-29.16-8.57-8.95,6.15-11.62,16.46-7.9,26.38,1.81,4.81,5.04,7.4,10.01,8.26,2.1.36,4.23.55,6.12,2.07,4.2,3.37,4.56,5.83.82,9.59-7.21,7.24-14.44,14.45-21.67,21.68"/>
        <path class="cls-4" d="m203.79-112.38c-8.24,9.07-17.23,17.35-25.73,26.15-6.35,6.58-12.35,4.91-14.71-3.88-2.01-7.46-5.61-10.09-13.43-10.89-13.29-1.35-23.28,9.47-24.5,19.97-.8,6.85,1.27,11.66,5.85,16.07,1.48,1.43,3.09,2.15,5.21,2.2,5.38.12,8.96,2.65,10.02,9.01-8.28,8.28-16.96,16.96-25.62,25.62,7.95,7.95,15.48,15.44,22.96,22.98,1.75,1.76,3.55,2.64,6.09,1.76,2.38-.83,3.64-2.11,3.95-4.8,1.43-12.25,9.61-14.16,18.08-11.91,8.74,2.33,16.5,7.31,19.48,16.7,2.77,8.71.66,15.2-6.84,19.49-3.38,1.93-6.65,4.03-9.98,6.05"/>
        <path class="cls-1" d="m203.22,55.96c-8.81-8.09-17.6-16.21-26.45-24.26-3.96-3.6-4.26-4.57-2.15-9.55"/>
        <path class="cls-14" d="m117.41,140.48c-6.79-6.79-13.58-13.58-20.37-20.37-1.01-1.01-2.19-1.91-3-3.06-2.89-4.07-1.02-9,3.88-10.37.4-.11.9.1,1.29-.03,4.05-1.43,9.02-1.38,10.83-6.49,2.2-6.18,1.75-12.16-1.74-17.76-5.1-8.17-12.81-12.65-22.11-13.7-4.72-.53-8.21,2.66-10.46,7.14-1.94,3.86-3.75,7.94-8.12,10.08-2.62,1.28-5.16,1.11-6.9-.58-8.54-8.36-16.87-16.93-25.18-25.53-1.43-1.48-1.1-2.68.73-4.4,8.61-8.14,16.83-16.68,25.25-25.02,3.32-3.29,6.01-3.76,9.53-2.2,2.7,1.19,3.18,3.74,3.87,6.1,1.94,6.67,5.58,11.14,13,12.29,3.07.47,5.87-.26,8.19-1.2,9.19-3.75,15.76-10.64,19.48-19.8,2.44-6-2.06-14.8-6.39-16.9-3.25-1.58-6.28-3.65-9.58-5.1-2.26-.99-4.15-2.11-5.45-5,8.65-8.65,17.47-17.46,26.29-26.28-6.94-6.94-13.88-13.86-20.8-20.81-2.52-2.53-5.44-3.79-9.1-3.98-3.76-.2-5.48,1.71-6.02,4.86-.86,5-1.26,10.04-7.41,11.73-4.58,1.26-9.09,1.52-13.43-.5-6.23-2.9-12.01-6.61-15.13-13-4.36-8.93-3.25-18.84,6.83-23.05,2.69-1.12,5.28-2.79,7.47-5.04,2.96-3.03,3.48-4.88.76-7.82-1.94-2.09-4.37-3.72-6.44-5.69-7.12-6.75-14.17-13.57-21.25-20.36"/>
        <path class="cls-8" d="m374,228.9c-8.67,8.52-17.38,17-25.99,25.59-6.75,6.73-2.49,12.89,3.89,14.25,11.7,2.5,11.61,10.22,10.26,18.65-1.45,9.06-7.84,14.62-15.91,18.19-7.27,3.22-16.22.2-20.42-6.43-.82-1.3-1.21-2.52-1.23-3.94-.02-1.85-.49-3.55-1.3-5.21-2.45-5-5.67-5.98-9.48-2.1-7.59,7.73-15.98,14.69-22.6,23.35-1.05,1.38-1.86,1.25-3.07.02-7.31-7.42-14.73-14.75-22.07-22.14-1.99-2.01-3.75-4.97-2.8-7.26,1.14-2.73,4.19-4.55,7.56-4.86,3.93-.36,7.8-1.33,9.45-5.24,2.39-5.69,2.79-11.67-.38-17.28-4.69-8.3-12.13-13.1-21.23-15.09-5.18-1.13-10.01,2-12.91,8.6-1.27,2.9-2.98,5.32-5.3,7.3-2.33,1.98-5.1,2.26-7.3,0-6.63-6.81-13.43-13.43-19.74-20.6-4.59-5.22-8.51-11.01-13.61-15.85-6.22-5.9-12.29-11.97-17.92-18.49-5.98-6.92-12.29-5.71-16.4,2.52-.9,1.79-1.85,3.59-3.04,5.19-4.51,6.04-8.65,7.18-16.43,4.33-9.14-3.35-15.44-9.48-18.25-19.03-1.38-4.69.34-8.88,1.88-12.97,1.21-3.21,4.97-2.9,7.7-3.93.82-.31,1.68-.02,2.62-.37,6.08-2.24,9.28-5.87,3.38-12.16-7.27-7.74-14.98-15.07-22.46-22.61-.65-.66-1.28-1.02-2.44-.76-2.17,4.07-5.81,7.19-9.35,10.23-4.84,4.16-7.93,9.93-13.33,13.57-5.45,3.68-8.64,2.54-10.02-3.95-.72-3.4-1.47-6.83-3.89-9.54-8.76-9.8-19.47-10.22-28.54-.81-6.29,6.54-10.48,14.02-7.5,23.8,1.63,5.35,5.18,8.47,10.06,10.32,2.07.79,4.19,1.37,6.05,2.65,3.38,2.33,4.16,6.38,1.71,9.53-.75.96-1.72,1.74-2.58,2.62-17.63,18.06-35.22,36.15-52.92,54.14-2.41,2.45-3.83,4.98-2.51,8.25,1.22,3.03,3.47,5.07,6.88,5.67,7.45,1.3,11.49,6.35,10.81,13.85-1.03,11.36-6.87,19.09-17.73,23-9.35,3.36-19.81-2.88-20.78-12.59-.16-1.57-.68-2.95-1.33-4.33-1.74-3.71-5.34-4.95-8.16-2.09-8.03,8.15-16.81,15.58-23.91,24.63"/>
        <path class="cls-13" d="m286.01-27.26c-.03,2.13-1.89,2.99-3.04,4.33-4.86,5.67-11.44,9.77-15.14,16.49-.62,1.13-1.81.65-2.64,1.26-7.07,5.21-9.96,4.25-11.12-4.76-1.37-10.72-13.75-16.56-20.93-15.15-5.85,1.15-10.4,4.65-13.74,9.19-3.02,4.11-5.9,8.43-5.89,14.21,0,8.71,3.05,15.5,13.55,18.27,7.39,1.95,8.75,7.53,3.48,12.93-17.33,17.78-34.67,35.55-52.01,53.31-1.97,2.02-4.25,3.8-4.58,6.93-.09.88-.99.26-1.49.44"/>
        <path class="cls-2" d="m34.19,56.39c-8.38-8.52-16.74-17.07-25.15-25.57-4.89-4.95-9.59-4.15-12.99,2.17-1.07,1.99-1.77,4.23-3.09,6.03-4.54,6.2-11.98,7.48-19.42,3.01-7.78-4.68-13.75-10.95-15.66-20.31-1.09-5.3,3.33-12.34,8.67-13.94,2.04-.61,4.13-1.05,6.13-2.01,4.38-2.1,5.67-5.28,2.95-9.18-1.1-1.58-2.51-2.97-3.88-4.35-4.45-4.51-8.74-9.2-13.47-13.4-3.08-2.74-6.18-5.45-9.28-8.18"/>
      </g>
    </g>
    <text class="cls-17" transform="translate(36.85 108.44)"><tspan class="cls-21" x="0" y="0">C</tspan><tspan class="cls-22" x="15.58" y="0">O</tspan><tspan x="32.11" y="0">NEC</tspan><tspan class="cls-20" x="81.94" y="0">T</tspan><tspan x="93.82" y="0">AR</tspan></text>
  </g>
</svg>